<svg xmlns="http://www.w3.org/2000/svg" width="148.688" height="61.469" viewBox="0 0 148.688 61.469">
  <metadata><?xpacket begin="﻿" id="W5M0MpCehiHzreSzNTczkc9d"?>
<x:xmpmeta xmlns:x="adobe:ns:meta/" x:xmptk="Adobe XMP Core 5.6-c138 79.159824, 2016/09/14-01:09:01        ">
   <rdf:RDF xmlns:rdf="http://www.w3.org/1999/02/22-rdf-syntax-ns#">
      <rdf:Description rdf:about=""/>
   </rdf:RDF>
</x:xmpmeta>
                                                                                                    
                                                                                                    
                                                                                                    
                                                                                                    
                                                                                                    
                                                                                                    
                                                                                                    
                                                                                                    
                                                                                                    
                                                                                                    
                                                                                                    
                                                                                                    
                                                                                                    
                                                                                                    
                                                                                                    
                                                                                                    
                                                                                                    
                                                                                                    
                                                                                                    
                                                                                                    
                           
<?xpacket end="w"?></metadata>
<defs>
    <style>
      .cls-1 {
        fill: #fff;
        fill-rule: evenodd;
      }
    </style>
  </defs>
  <path class="cls-1" d="M285.664,87.691c-1.693-1.8-4.108-2.021-6.8-2.021h-0.23a13.157,13.157,0,0,0-8.72-4.274c-3.394-.22-6.18-0.219-8.582.807,0.08-.65.148-1.5,0.2-2.161a4.157,4.157,0,0,0,1.589.2c2.979,0,6.107-2.51,6.378-8.012,0.129-3.035-.369-5.256-1.442-6.376a2.587,2.587,0,0,0-1.887-.842c-1.6,0-3.1,1.4-4.268,3.939,0-.278-0.008-0.524-0.012-0.748-0.007-.465-0.014-0.847-0.014-1.276,0-1.074-.051-1.682-1.1-1.682a1.488,1.488,0,0,0-1.05.466,2.481,2.481,0,0,0-.589,1.884c0.026,1.344.031,2.705,0.016,4.158-0.485,2.181-1.365,3.9-2.273,4.563a16.949,16.949,0,0,0,1.081-4.132c0.405-2.936-.04-5.476-1.191-6.8a2.041,2.041,0,0,0-1.929-.8,3.5,3.5,0,0,0-2.05,1.223,0.914,0.914,0,0,0-1.215-.331c-2.508.993-4.1,3.912-4.264,7.808a7.83,7.83,0,0,0,1.831,5.816A4.19,4.19,0,0,0,252.2,80.48a4.454,4.454,0,0,0,3.552-2.1,4.45,4.45,0,0,0,3.256-1.947c-0.116,2.421-.3,4.8-0.551,7.088a17.452,17.452,0,0,0-5.042,6.353c-1.926,3.821-1.714,7.33-.7,8.975a1.97,1.97,0,0,0,1.628,1.082c3,0,5.411-8.329,6.584-15.557a14.446,14.446,0,0,1,8.191-1.913,11.25,11.25,0,0,1,6.615,2.121,8.191,8.191,0,0,0-5.719,6.89,5.42,5.42,0,0,0,1.091,4.3,4.064,4.064,0,0,0,3.409,1.355,5.887,5.887,0,0,0,4.23-1.95,8.345,8.345,0,0,0,1.8-6.189,8.952,8.952,0,0,0-.587-2.688c3.8,0.621,6.078,3.871,5.881,8.507a9.727,9.727,0,0,1-9.611,9.138c-2.911,0-5.047-.712-6.175-2.059a4.4,4.4,0,0,1-.848-3.664c0.029-.141.056-0.262,0.081-0.367a1.015,1.015,0,0,0-.05-0.924,0.626,0.626,0,0,0-.516-0.231,1.681,1.681,0,0,0-.375.053,3.345,3.345,0,0,0-2.409,3.1c0,2.853,3.041,5.925,9.716,5.925,6.933,0,12.08-4.206,12.516-10.782A9.246,9.246,0,0,0,285.664,87.691Zm-33.958-19.95A12.082,12.082,0,0,0,251.143,73a6.389,6.389,0,0,0,2.512,4.78,1.672,1.672,0,0,1-.834.248,1.655,1.655,0,0,1-1.149-.575,6.4,6.4,0,0,1-1.249-4.605A10.247,10.247,0,0,1,251.706,67.741Zm4.256,4.6a9.477,9.477,0,0,1-.979,4.012c-1.139-.7-1.618-2.431-1.677-3.8-0.123-2.452.913-4.56,1.737-4.8a0.329,0.329,0,0,1,.2.123C255.7,68.362,256.114,69.965,255.962,72.343Zm7.118,5.929a2.141,2.141,0,0,1-1.355-.379l0.063-1c1.023-6.6,3.018-9.4,3.641-9.4a0.309,0.309,0,0,1,.237.128c0.443,0.472.843,2.1,0.637,5.246C266.062,76.254,264.857,78.272,263.08,78.272Zm-8.1,18.541a0.41,0.41,0,0,1-.272-0.225c-0.472-.763-0.546-3.152,1.183-6.611a14.88,14.88,0,0,1,2.082-3.122C256.964,93.3,255.546,96.537,254.98,96.813Zm21.976-2.7a2.678,2.678,0,0,1-1.979.89l-0.1,0a2.34,2.34,0,0,1-1.847-.813,3.746,3.746,0,0,1-.566-3.037,5.758,5.758,0,0,1,4.808-4.858,6.813,6.813,0,0,1,.984,3.246A6.161,6.161,0,0,1,276.956,94.114Zm-29.82-13.793c-0.686-.25-1.4-1.875-0.877-8.2,0.28-3.6.4-5.683-.471-6.62a1.578,1.578,0,0,0-1.207-.5c-2.081,0-4.085,2.532-5.482,5.567a61.064,61.064,0,0,1,.448-6.728,10.521,10.521,0,0,0,4.972-5.014c1.767-3.472,1.538-7.17.4-9.028a1.988,1.988,0,0,0-1.614-1.114c-2.639,0-5.08,5.525-6.249,14.107a8.495,8.495,0,0,1-3.513.075,5.294,5.294,0,0,1-.864-0.229,6.616,6.616,0,0,0,2.83-5.319,5.776,5.776,0,0,0-1.373-4.369,7.021,7.021,0,0,0-5.112-2.041q-0.174-.006-0.351-0.006c-4.323,0-8.889,2.335-9.255,6.791-0.374,3.919,3.1,6.2,6.462,8.41l0.674,0.444c3.212,2.155,6.057,4.4,5.6,8.109-0.372,3.045-4.209,5.5-8.3,5.179a7.1,7.1,0,0,1-5.046-2.49,6.536,6.536,0,0,1-1.392-5c0.259-1.919,1.1-3.388,3-5.255a1.211,1.211,0,0,0,.493-1.224,0.752,0.752,0,0,0-.959-0.371A8.174,8.174,0,0,0,217.02,66.7a7.375,7.375,0,0,0-2.218,5.029c-0.231,4.093,1.873,9.283,8.561,10.438a12.124,12.124,0,0,0,2.031.174c5.446,0,9.775-3.669,10.072-8.536,0.264-4.561-3.256-7.129-6.578-9.18l-0.364-.22c-3.223-1.952-6.268-3.8-5.794-7.417,0.374-2.768,3.02-4.007,5.475-4.007,0.174,0,.349.006,0.524,0.017,2.723,0.175,4.243,1.731,4.283,4.384A4.237,4.237,0,0,1,232,60.365a1.442,1.442,0,0,1-.956.489,0.952,0.952,0,0,1-.809-0.64,3.824,3.824,0,0,1-.062-2.118l0.079-.243a1.047,1.047,0,0,0,.038-1,0.623,0.623,0,0,0-.525-0.247,1.748,1.748,0,0,0-.377.051,2.946,2.946,0,0,0-2.223,2.514c-0.083,2.31,1.3,4.974,5.446,5.525a14.022,14.022,0,0,0,4.249-.039c-0.265,2.428-.435,5-0.507,7.665-0.033,1.58-.058,2.508-0.078,3.2-0.03,1.05-.045,1.572-0.045,2.987,0,1.211.179,1.64,1.187,1.64,0.553,0,1.5-.464,1.551-2.145,1-6.628,3.738-10.292,4.445-10.328a6.5,6.5,0,0,1-.059,2.019c-0.095.922-.214,2.069-0.243,3.448-0.121,5.676.977,8.559,3.353,8.815,1.177,0.145,1.4-.391,1.44-0.606A0.952,0.952,0,0,0,247.136,80.321Zm-7.279-18.766c0.947-6.095,2.374-9.557,2.9-9.8a0.767,0.767,0,0,1,.284.4,8.618,8.618,0,0,1-.794,6.483A7.93,7.93,0,0,1,239.857,61.556Zm-25,4.216-0.145-.187a0.949,0.949,0,0,0-.8-0.28c-0.846,0-2.235.4-2.358,1.468-0.118.743-.243,2.006-0.332,3.353-0.635,5.085-2.14,7.9-2.938,7.9a0.9,0.9,0,0,1-.713-0.331c-1.037-1.177-1.148-5.068-.331-11.559l0.017-.264-0.146-.168a0.939,0.939,0,0,0-.753-0.247c-0.856,0-2.263.408-2.389,1.508a37.851,37.851,0,0,0-.184,6.632c-0.576,1.849-1.867,4.841-4.194,4.841a2.3,2.3,0,0,1-1.656-.764,7.021,7.021,0,0,1-1.443-4.992c0.157-3.6,1.246-6.416,2.48-6.416a0.7,0.7,0,0,1,.642.278c0.39,0.554.22,1.9-.149,2.942l-0.083.22a1.075,1.075,0,0,0-.085,1.041,0.73,0.73,0,0,0,.877.209c0.725-.136,2.2-0.913,2.332-1.883a5.037,5.037,0,0,0-1-3.583,2.828,2.828,0,0,0-2.164-.895c-3.157,0-5.721,3.688-5.966,8.587-0.01.314-.007,0.617,0,0.913-0.861,3.369-1.568,4.546-1.847,4.8-0.231-.386-0.536-2.255.421-7.276l0.014-.271-0.145-.168a1.071,1.071,0,0,0-.841-0.268,2.1,2.1,0,0,0-2.213,1.375,7.357,7.357,0,0,0-.1.848l-0.023.306c-0.537,3.011-1.617,4.587-2.407,4.587a0.678,0.678,0,0,1-.428-0.272c-0.648-.733-1.207-2.646-0.9-5.117,0.4-3.318,1.744-5.548,3.351-5.548a1.171,1.171,0,0,1,.978.323,2.225,2.225,0,0,1-.074,1.785l-0.049.131A1.255,1.255,0,0,0,189,70.521a0.8,0.8,0,0,0,.871.227c0.73-.136,2.2-1,2.332-1.973a3.084,3.084,0,0,0-.8-2.327,3.645,3.645,0,0,0-2.778-1.031c-2.746,0-6.183,2.077-6.819,7.962-1.029,3.419-2.337,5.012-2.9,5.012-0.74,0-1.9-2.188-2.188-7.047a50.155,50.155,0,0,0,5.214-12.517c0.8-3.445,1.337-9.04.023-10.694a1.318,1.318,0,0,0-1.059-.543c-3.834,0-6.923,11.805-7.45,20.271a26.7,26.7,0,0,0,.056,3.921c-0.858,4.066-2.476,6.656-3.22,6.656-0.7,0-1.787-2.074-2.061-6.684a47.8,47.8,0,0,0,4.965-11.921c0.763-3.287,1.273-8.626.018-10.207a1.282,1.282,0,0,0-1.027-.526c-3.666,0-6.617,11.257-7.119,19.329-0.337,5.837,1.268,9.736,2.746,11.3a2.863,2.863,0,0,0,2.024,1.04c1.79,0,3.4-2.428,4.444-4.961,0.934,3.035,2.521,4.981,4.158,4.981,1.246,0,2.585-1.2,3.765-3.342,0.708,2,2.1,3.037,3.3,3.037,0.053,0,.106,0,0.165-0.007,1.145-.1,2.241-0.986,3.165-2.532,0.373,2.081,1.18,3.317,2.231,3.317,1.28,0,2.359-1.792,3.137-3.663a5.368,5.368,0,0,0,4.773,3.293c2.006,0,3.924-1.431,5.382-3.973,0.9,2.957,2.518,3.437,3.477,3.437s1.889-.692,2.733-1.99l-0.028.269a28.476,28.476,0,0,0-5.47,9.353c-1.02,2.85-1,5.888.061,7.388a1.878,1.878,0,0,0,1.55.885c1.8,0,4.516-2.462,7.362-23.739,0.447-3.091.779-6.463,0.774-6.463ZM168.242,67.7c0.35-5.988,2.346-14.041,3.351-15.392a18.1,18.1,0,0,1-.622,7.623A53.575,53.575,0,0,1,168.242,67.7Zm8.491-.474c0.349-6.382,2.5-15.025,3.557-16.344,0.312,0.839.385,4.129-.637,8.061A56.4,56.4,0,0,1,176.733,67.229Zm33.288,15.144c-1.084,7.459-2.275,10.594-2.822,10.814a0.5,0.5,0,0,1-.3-0.243c-0.453-.651-0.6-2.262.358-4.831A34.609,34.609,0,0,1,210.021,82.374Zm-12.676,2.139a1.108,1.108,0,0,0-.651-0.308,0.735,0.735,0,0,0-.643.547,4.991,4.991,0,0,1-.238.459c-0.579,1.045-2.459,1.576-5.59,1.576a85.616,85.616,0,0,1-12.8-1.457c-5.147-.877-11.018-1.808-15.839-2.144a102.229,102.229,0,0,0,1.967-15.235c0-.577-0.878-0.707-1.186-0.707-0.387,0-1.658.16-1.734,2.223L160.5,71.941c-0.453,2.442-1.814,6.567-5.844,6.765-0.09,0-.18.007-0.269,0.007h0a5.1,5.1,0,0,1-3.965-1.789c-1.91-2.159-2.714-6.186-2.152-10.77a24.441,24.441,0,0,1,1.048-4.657c6.433-.148,12.565-3.069,14.057-6.731a4.052,4.052,0,0,0-.189-3.836c-0.874-1.3-2.64-1.88-4.809-1.589-4.491.58-8.95,4.351-11.45,9.655-2.828-.8-5.261-3.2-4.644-6.455,0.891-4.765,7.22-6.321,9.3-6.321a1.844,1.844,0,0,1,.609.068,2.59,2.59,0,0,0,.9.165,1.021,1.021,0,0,0,1.13-.64c0.158-.7-0.794-1.153-1.16-1.327a2.842,2.842,0,0,0-1.119-.167c-2.836,0-11.018,1.98-12.293,8.355a6.486,6.486,0,0,0,.891,5.072,9.071,9.071,0,0,0,5.5,3.447,23.316,23.316,0,0,0-1.189,5.347c-0.524,4.827.522,9.1,2.872,11.715a8.137,8.137,0,0,0,6.224,2.74l0.293,0a8.193,8.193,0,0,0,5.652-2.551,46.1,46.1,0,0,1-.8,4.652c-0.351-.008-0.7-0.011-1.033-0.011-5.761,0-8.98,1.192-10.13,3.746a4.281,4.281,0,0,0,.273,4.239,6.1,6.1,0,0,0,5.069,2.685,5.79,5.79,0,0,0,.94-0.077c3.129-.559,5.31-3.249,6.846-8.452a108.133,108.133,0,0,1,15.858,2.24c0.947,0.2,1.9.4,2.855,0.6,5.188,1.1,10.089,2.146,13.652,2.146,2.05,0,3.471-.355,4.338-1.08a2.527,2.527,0,0,0,1-2.119A3.334,3.334,0,0,0,197.345,84.513ZM154.519,91.15a3.259,3.259,0,0,1-1.06.183,2.54,2.54,0,0,1-2.264-1.259,2.863,2.863,0,0,1,.224-2.924c0.526-.852,2.2-1.859,7.143-1.941C157.55,88.553,156.19,90.55,154.519,91.15ZM157.755,51.7a4.642,4.642,0,0,1,.812-0.079,1.679,1.679,0,0,1,1.454.6,2.34,2.34,0,0,1-.117,2.147c-1.271,2.665-5.877,4.59-9.718,4.895C152.086,55.217,155.067,52.217,157.755,51.7Z" transform="translate(-139.5 -44.313)"/>
</svg>
